<svg xmlns="http://www.w3.org/2000/svg" xmlns:xlink="http://www.w3.org/1999/xlink" width="500" zoomAndPan="magnify" viewBox="0 0 375 374.999991" height="500" preserveAspectRatio="xMidYMid meet" version="1.0"><defs><g/><clipPath id="d3c254f991"><rect x="0" width="352" y="0" height="233"/></clipPath></defs><g transform="matrix(1, 0, 0, 1, 5, 71)"><g clip-path="url(#d3c254f991)"><g fill="#000000" fill-opacity="1"><g transform="translate(13.950658, 181.182277)"><g><path d="M 2.578125 35.78125 C -3.242188 35.78125 -8.320312 35.171875 -12.65625 33.953125 L -12.65625 12.484375 C -8.207031 13.585938 -4.15625 14.140625 -0.5 14.140625 C 5.15625 14.140625 9.203125 12.378906 11.640625 8.859375 C 14.085938 5.335938 15.3125 -0.164062 15.3125 -7.65625 L 15.3125 -121.65625 L 41.109375 -121.65625 L 41.109375 -7.828125 C 41.109375 6.378906 37.863281 17.195312 31.375 24.625 C 24.882812 32.0625 15.285156 35.78125 2.578125 35.78125 Z M 2.578125 35.78125 "/></g></g></g><g fill="#000000" fill-opacity="1"><g transform="translate(70.367888, 181.182277)"><g><path d="M 15.3125 -121.65625 L 53.171875 -121.65625 C 70.421875 -121.65625 82.941406 -119.203125 90.734375 -114.296875 C 98.535156 -109.390625 102.4375 -101.582031 102.4375 -90.875 C 102.4375 -83.601562 100.726562 -77.632812 97.3125 -72.96875 C 93.90625 -68.3125 89.375 -65.515625 83.71875 -64.578125 L 83.71875 -63.734375 C 91.425781 -62.015625 96.984375 -58.796875 100.390625 -54.078125 C 103.804688 -49.367188 105.515625 -43.101562 105.515625 -35.28125 C 105.515625 -24.1875 101.503906 -15.53125 93.484375 -9.3125 C 85.472656 -3.101562 74.585938 0 60.828125 0 L 15.3125 0 Z M 41.109375 -73.484375 L 56.09375 -73.484375 C 63.082031 -73.484375 68.140625 -74.5625 71.265625 -76.71875 C 74.398438 -78.882812 75.96875 -82.460938 75.96875 -87.453125 C 75.96875 -92.117188 74.257812 -95.460938 70.84375 -97.484375 C 67.4375 -99.503906 62.046875 -100.515625 54.671875 -100.515625 L 41.109375 -100.515625 Z M 41.109375 -53 L 41.109375 -21.296875 L 57.921875 -21.296875 C 65.015625 -21.296875 70.253906 -22.65625 73.640625 -25.375 C 77.023438 -28.09375 78.71875 -32.253906 78.71875 -37.859375 C 78.71875 -47.953125 71.503906 -53 57.078125 -53 Z M 41.109375 -53 "/></g></g></g><g fill="#000000" fill-opacity="1"><g transform="translate(184.866576, 181.182277)"><g><path d="M 89.78125 0 L 80.96875 -28.953125 L 36.609375 -28.953125 L 27.796875 0 L 0 0 L 42.9375 -122.15625 L 74.46875 -122.15625 L 117.578125 0 Z M 74.8125 -50.59375 C 66.65625 -76.832031 62.0625 -91.671875 61.03125 -95.109375 C 60.007812 -98.546875 59.273438 -101.265625 58.828125 -103.265625 C 57.003906 -96.160156 51.765625 -78.601562 43.109375 -50.59375 Z M 74.8125 -50.59375 "/></g></g></g><g fill="#000000" fill-opacity="1"><g transform="translate(302.44408, 181.182277)"><g><path d="M 9.734375 -11.90625 C 9.734375 -16.5625 10.976562 -20.082031 13.46875 -22.46875 C 15.96875 -24.851562 19.601562 -26.046875 24.375 -26.046875 C 28.976562 -26.046875 32.539062 -24.820312 35.0625 -22.375 C 37.59375 -19.9375 38.859375 -16.445312 38.859375 -11.90625 C 38.859375 -7.519531 37.582031 -4.0625 35.03125 -1.53125 C 32.476562 0.988281 28.925781 2.25 24.375 2.25 C 19.71875 2.25 16.113281 1.015625 13.5625 -1.453125 C 11.007812 -3.921875 9.734375 -7.40625 9.734375 -11.90625 Z M 9.734375 -11.90625 "/></g></g></g></g></g></svg>